<svg width="30" height="30" viewBox="0 0 30 30" fill="none" xmlns="http://www.w3.org/2000/svg">
<circle cx="15" cy="15" r="15" fill="#0045B2"/>
<path d="M6.73684 7H27L25.8421 14H5L6.73684 7Z" fill="#C70100"/>
<path d="M5 14H25.8335L24.7895 21H3L5 14Z" fill="#EF620A"/>
<path d="M10.7752 9L10 11.9834H10.646L10.8675 11.083L11.1444 10.8143L11.4397 11.9834H12.1411L11.6797 10.3439L12.9348 9H12.2703L11.1075 10.2498L11.4397 9H10.7752Z" fill="white"/>
<path d="M14.6142 9H13.6913L12.2332 11.9969H12.8053L13.0822 11.4324H13.8574V11.97H14.485L14.6142 9Z" fill="white"/>
<path d="M13.2668 11.0427L13.9498 9.56445L13.8944 11.0427H13.2668Z" fill="#C70100"/>
<path d="M19.3212 9H18.3984L16.9402 11.9969H17.5124L17.7892 11.4324H18.5645V11.97H19.192L19.3212 9Z" fill="white"/>
<path d="M17.9736 11.0427L18.6566 9.56445L18.6012 11.0427H17.9736Z" fill="#C70100"/>
<path d="M15.5743 9.01367H17.2613L17.1986 9.41684H16.0727L15.925 10.1157C15.925 10.1157 16.3126 10.1157 16.4603 10.1291C16.6079 10.1425 16.9752 10.2501 17.014 10.5188C17.0529 10.7876 17.0325 11.0295 16.8848 11.3386C16.7402 11.6413 16.4603 11.903 16.165 11.9702C15.8696 12.0374 14.7991 11.9702 14.7991 11.9702L15.5743 9.01367Z" fill="#FEFDFF"/>
<path d="M15.5557 11.5672L15.8141 10.5593H16.1648C16.3863 10.5593 16.3924 10.7027 16.3678 10.7743L16.2201 11.3119C16.1611 11.5054 16.011 11.5538 15.9433 11.5538L15.5557 11.5672Z" fill="#B60108"/>
<path d="M19.469 11.9702L20.2442 9.01367H21.1856H21.3886L21.5547 9.04055C21.9423 9.12118 21.9793 9.36308 21.9977 9.41684C22.0125 9.45984 21.9547 9.76625 21.9239 9.91408C21.8796 10.1721 21.7701 10.3979 21.7209 10.4785C21.6618 10.6505 21.2409 10.8414 20.9825 10.8414H20.3919L20.0966 11.9702H19.469Z" fill="white"/>
<path d="M20.521 10.4115L20.7794 9.40356H21.1301C21.3516 9.40356 21.3578 9.54691 21.3331 9.61859L21.1855 10.1561C21.1264 10.3497 20.9763 10.398 20.9086 10.398L20.521 10.4115Z" fill="#B60108"/>
<path d="M9.70235 16.0269L9 18.9733H9.5184L10.0034 17.0715L9.95319 18.9733H10.505L11.3746 17.0179L10.9231 18.9733H11.4582L12.1439 16.0269H11.3412L10.4716 17.9822L10.505 16.0269H9.70235Z" fill="white"/>
<path d="M12.6289 16.0269H14.1674L14.067 16.4286H13.0804L12.8964 17.2724H13.6657L13.5988 17.6876L12.7961 17.701L12.5954 18.5715H13.5653L13.465 18.9733H11.8931L12.6289 16.0269Z" fill="white"/>
<path d="M19 16H18.1639L16.8428 18.9866H17.3612L17.612 18.4241H18.3144V18.9598H18.8829L19 16Z" fill="white"/>
<path d="M17.7791 18.0357L18.3978 16.5625L18.3476 18.0357H17.7791Z" fill="#FB9002"/>
<path d="M13.8162 19L14.5342 16L15.6891 16.0134C16.0642 16.0134 16.2492 16.3608 16.2075 16.4955L15.8396 18.3571C15.7396 18.7209 15.4383 18.933 15.154 18.9866L13.8162 19Z" fill="white"/>
<path d="M14.4683 18.5714L14.9867 16.4553H15.3211C15.5218 16.4553 15.5775 16.5982 15.5552 16.6696L15.1873 18.2232C15.1338 18.416 14.9978 18.5714 14.9365 18.5714H14.4683Z" fill="#FE8707"/>
<path d="M17.2443 16.0269H16.7092L15.9734 18.9867H16.5587L17.2443 16.0269Z" fill="white"/>
</svg>
